<?xml version="1.0" encoding="utf-8"?>
<!-- Generator: Adobe Illustrator 24.1.0, SVG Export Plug-In . SVG Version: 6.00 Build 0)  -->
<svg version="1.1" id="Layer_1" xmlns="http://www.w3.org/2000/svg" xmlns:xlink="http://www.w3.org/1999/xlink" x="0px" y="0px"
	 viewBox="0 0 1366 768" style="enable-background:new 0 0 1366 768;" xml:space="preserve">
<style type="text/css">
	.st0{fill:url(#SVGID_1_);}
	.st1{fill:url(#SVGID_2_);}
	.st2{fill:#504416;}
	.st3{fill:#7F7F7F;}
	.st4{fill:#9E9E9E;}
	.st5{fill:#B3B3B3;}
	.st6{fill:#786721;}
	.st7{fill:#AA8800;}
	.st8{fill:url(#SVGID_3_);}
	.st9{fill:url(#SVGID_4_);}
	.st10{fill:url(#SVGID_5_);}
	.st11{fill:url(#SVGID_6_);}
	.st12{fill:url(#SVGID_7_);}
	.st13{fill:url(#SVGID_8_);}
	.st14{fill:url(#SVGID_9_);}
	.st15{fill:url(#SVGID_10_);}
	.st16{fill:url(#SVGID_11_);}
	.st17{fill:url(#SVGID_12_);}
	.st18{fill:url(#SVGID_13_);}
	.st19{fill:url(#SVGID_14_);}
	.st20{fill:url(#SVGID_15_);}
	.st21{fill:url(#SVGID_16_);}
	.st22{fill:url(#SVGID_17_);}
	.st23{fill:url(#SVGID_18_);}
	.st24{fill:url(#SVGID_19_);}
	.st25{fill:url(#SVGID_20_);}
	.st26{fill:url(#SVGID_21_);}
	.st27{fill:url(#SVGID_22_);}
	.st28{fill:url(#SVGID_23_);}
	.st29{fill:url(#SVGID_24_);}
	.st30{fill:url(#SVGID_25_);}
	.st31{fill:url(#SVGID_26_);}
	.st32{fill:url(#SVGID_27_);}
	.st33{fill:url(#SVGID_28_);}
	.st34{fill:url(#SVGID_29_);}
	.st35{fill:url(#SVGID_30_);}
	.st36{fill:url(#SVGID_31_);}
	.st37{fill:url(#SVGID_32_);}
	.st38{fill:url(#SVGID_33_);}
	.st39{fill:url(#SVGID_34_);}
	.st40{fill:url(#SVGID_35_);}
	.st41{fill:url(#SVGID_36_);}
	.st42{fill:url(#SVGID_37_);}
	.st43{fill:url(#SVGID_38_);}
	.st44{fill:url(#SVGID_39_);}
	.st45{fill:url(#SVGID_40_);}
	.st46{fill:url(#SVGID_41_);}
	.st47{fill:url(#SVGID_42_);}
	.st48{fill:url(#SVGID_43_);}
	.st49{fill:url(#SVGID_44_);}
	.st50{fill:#22280B;}
	.st51{fill:url(#SVGID_45_);}
	.st52{fill:url(#SVGID_46_);}
	.st53{fill:url(#SVGID_47_);}
	.st54{fill:url(#SVGID_48_);}
	.st55{fill:url(#SVGID_49_);}
	.st56{fill:url(#SVGID_50_);}
	.st57{fill:url(#SVGID_51_);}
	.st58{fill:url(#SVGID_52_);}
	.st59{fill:url(#SVGID_53_);}
	.st60{fill:url(#SVGID_54_);}
	.st61{fill:url(#SVGID_55_);}
	.st62{fill:url(#SVGID_56_);}
	.st63{fill:url(#SVGID_57_);}
	.st64{fill:url(#SVGID_58_);}
	.st65{fill:url(#SVGID_59_);}
	.st66{fill:url(#SVGID_60_);}
	.st67{fill:url(#SVGID_61_);}
	.st68{fill:url(#SVGID_62_);}
	.st69{fill:url(#SVGID_63_);}
	.st70{fill:url(#SVGID_64_);}
	.st71{fill:url(#SVGID_65_);}
	.st72{fill:url(#SVGID_66_);}
	.st73{fill:url(#SVGID_67_);}
	.st74{fill:url(#SVGID_68_);}
	.st75{fill:url(#SVGID_69_);}
	.st76{fill:url(#SVGID_70_);}
	.st77{fill:url(#SVGID_71_);}
	.st78{fill:url(#SVGID_72_);}
	.st79{fill:url(#SVGID_73_);}
	.st80{fill:url(#SVGID_74_);}
	.st81{fill:url(#SVGID_75_);}
	.st82{fill:url(#SVGID_76_);}
	.st83{fill:url(#SVGID_77_);}
	.st84{fill:url(#SVGID_78_);}
	.st85{fill:url(#SVGID_79_);}
	.st86{fill:#8A912D;fill-opacity:0.5643;}
	.st87{fill:url(#SVGID_80_);}
	.st88{fill:#2B2200;fill-opacity:0.4357;}
	.st89{fill:url(#SVGID_81_);}
	.st90{fill:#8A913D;fill-opacity:0.6431;}
	.st91{fill:url(#SVGID_82_);}
	.st92{fill:url(#SVGID_83_);}
	.st93{fill:url(#SVGID_84_);}
	.st94{fill:url(#SVGID_85_);}
	.st95{fill:url(#SVGID_86_);}
	.st96{fill:url(#SVGID_87_);}
	.st97{fill:url(#SVGID_88_);}
	.st98{fill:url(#SVGID_89_);}
	.st99{fill:url(#SVGID_90_);}
	.st100{fill:#554400;fill-opacity:0.6473;}
	.st101{fill:url(#SVGID_91_);}
	.st102{fill:#C8AB37;}
	.st103{fill:#A0892C;}
	.st104{fill:url(#SVGID_92_);}
</style>
<g transform="translate(0 -284.36)">
	
		<linearGradient id="SVGID_1_" gradientUnits="userSpaceOnUse" x1="679.1061" y1="1019.7101" x2="701.5661" y2="339.8091" gradientTransform="matrix(1.0049 0 0 -1.0049 -6.0338 1341.4899)">
		<stop  offset="0" style="stop-color:#AAFFEE"/>
		<stop  offset="1" style="stop-color:#DCD19A"/>
	</linearGradient>
	<rect x="-5.8" y="280.1" class="st0" width="1380.8" height="568.3"/>
	
		<linearGradient id="SVGID_2_" gradientUnits="userSpaceOnUse" x1="242.0515" y1="149.5871" x2="236.1615" y2="-18.4129" gradientTransform="matrix(-2.1249 0 0 -1.6403 1060.0807 903.4312)">
		<stop  offset="0" style="stop-color:#3C785E"/>
		<stop  offset="1" style="stop-color:#4BA75E"/>
	</linearGradient>
	<path class="st1" d="M1120,888.9L-7.4,892.2l2.6-167.7c61.8-3.5,123.7-98.6,173.6-90.3c22.1,3.7,120.2,69.6,174.6,76.6
		c57.8,7.4,147-70,201.2-34.7c44.6,29.1,143.3,17.1,204.5,36.3C881.4,754,995.8,818,1120,888.9L1120,888.9z"/>
	<path class="st2" d="M549,815.5l11.2,9.1l-10.8,12.9l-11.2-9.1L549,815.5z"/>
	<g transform="matrix(1.0049 0 0 1.0049 -5.8231 -3.8662)">
		<rect x="635.4" y="721.5" class="st3" width="3.3" height="93.2"/>
		<rect x="636.2" y="721.5" class="st4" width="3.3" height="93.2"/>
		<path class="st3" d="M637,719.2l-6.4,0.3v15.3h6.4l5.1-8.2L637,719.2z"/>
		<polygon class="st3" points="640.9,714.3 636.4,714.3 630.6,719.5 637,719.2 		"/>
		<path class="st4" d="M637,718.9l3.9-4.6l4,5.6v14.9H637V718.9z"/>
		<g transform="translate(1.5313 -3.573)">
			<g transform="translate(-.76565 .25522)">
				<path class="st3" d="M640.5,725.3l-23.9-25.1l11.7-2.3L640.5,725.3z"/>
				<path class="st3" d="M641.2,726.2l14,28.6l10.5-2.9L641.2,726.2z"/>
				<path class="st3" d="M641.1,725.9l29.2-4.7l-8.8-12.3L641.1,725.9z"/>
				<path class="st3" d="M639.3,726.2v0.6l-21,25.1l-7-14L639.3,726.2z"/>
			</g>
			<path class="st5" d="M640.1,725.3l-23.9-25.1l11.7-2.3L640.1,725.3z"/>
			<path class="st5" d="M640.8,726.5l14,28.6l10.5-2.9L640.8,726.5z"/>
			<path class="st5" d="M642.1,725.6l29.2-4.7l-8.8-12.3L642.1,725.6z"/>
			<path class="st5" d="M640.3,725.9v0.6l-21,25.1l-7-14L640.3,725.9z"/>
		</g>
	</g>
	<g transform="matrix(1.0049 0 0 1.0049 -5.8231 -3.8662)">
		<rect x="691.7" y="739.2" class="st3" width="3.3" height="93.2"/>
		<rect x="692.6" y="739.2" class="st4" width="3.3" height="93.2"/>
		<path class="st3" d="M693.3,736.9l-6.4,0.3v15.3h6.4l5.1-8.2L693.3,736.9z"/>
		<polygon class="st3" points="697.2,732 692.7,732 687,737.2 693.3,736.9 		"/>
		<path class="st4" d="M693.3,736.6l3.9-4.6l4,5.6v14.9h-7.9V736.6z"/>
		<g transform="translate(1.5313 -3.573)">
			<g transform="translate(-.76565 .25522)">
				<path class="st3" d="M696.8,743l-23.9-25.1l11.7-2.3L696.8,743z"/>
				<path class="st3" d="M697.5,743.9l14,28.6l10.5-2.9L697.5,743.9z"/>
				<path class="st3" d="M697.4,743.6l29.2-4.7l-8.8-12.3L697.4,743.6z"/>
				<path class="st3" d="M695.6,743.9v0.6l-21,25.1l-7-14L695.6,743.9z"/>
			</g>
			<path class="st5" d="M696.4,742.9l-23.9-25.1l11.7-2.3L696.4,742.9z"/>
			<path class="st5" d="M697.2,744.2l14,28.6l10.5-2.9L697.2,744.2z"/>
			<path class="st5" d="M698.4,743.3l29.2-4.7l-8.8-12.3L698.4,743.3z"/>
			<path class="st5" d="M696.6,743.6v0.6l-21,25.1l-7-14L696.6,743.6z"/>
		</g>
	</g>
	<g transform="matrix(1.0049 0 0 1.0049 -5.8231 -3.8662)">
		<rect x="750.6" y="753" class="st3" width="3.3" height="93.2"/>
		<rect x="751.5" y="753" class="st4" width="3.3" height="93.2"/>
		<path class="st3" d="M752.3,750.7l-6.4,0.3v15.3h6.4l5.1-8.2L752.3,750.7z"/>
		<polygon class="st3" points="756.1,745.8 751.6,745.8 745.9,751 752.3,750.7 		"/>
		<path class="st4" d="M752.3,750.4l3.9-4.6l4,5.6v14.9h-7.9V750.4z"/>
		<g transform="translate(1.5313 -3.573)">
			<g transform="translate(-.76565 .25522)">
				<path class="st3" d="M755.7,756.8l-23.9-25.1l11.7-2.3L755.7,756.8z"/>
				<path class="st3" d="M756.4,757.7l14,28.6l10.5-2.9L756.4,757.7z"/>
				<path class="st3" d="M756.3,757.4l29.2-4.7l-8.8-12.3L756.3,757.4z"/>
				<path class="st3" d="M754.6,757.7v0.6l-21,25.1l-7-14L754.6,757.7z"/>
			</g>
			<path class="st5" d="M755.4,756.8l-23.9-25.1l11.7-2.3L755.4,756.8z"/>
			<path class="st5" d="M756.1,758l14,28.6l10.5-2.9L756.1,758z"/>
			<path class="st5" d="M757.3,757.1l29.2-4.7l-8.8-12.3L757.3,757.1z"/>
			<path class="st5" d="M755.6,757.4v0.6l-21,25.1l-7-14L755.6,757.4z"/>
		</g>
	</g>
	<g transform="matrix(1.0049 0 0 1.0049 -5.8231 -3.8662)">
		<rect x="807.8" y="717.7" class="st3" width="3.3" height="93.2"/>
		<rect x="808.7" y="717.7" class="st4" width="3.3" height="93.2"/>
		<path class="st3" d="M809.5,715.5l-6.4,0.3V731h6.4l5.1-8.2L809.5,715.5z"/>
		<polygon class="st3" points="813.4,710.6 808.9,710.6 803.1,715.7 809.5,715.5 		"/>
		<path class="st4" d="M809.5,715.2l3.9-4.6l4,5.6V731h-7.9V715.2z"/>
		<g transform="translate(1.5313 -3.573)">
			<g transform="translate(-.76565 .25522)">
				<path class="st3" d="M813,721.6L789,696.5l11.7-2.3L813,721.6z"/>
				<path class="st3" d="M813.7,722.5l14,28.6l10.5-2.9L813.7,722.5z"/>
				<path class="st3" d="M813.6,722.2l29.2-4.7l-8.8-12.3L813.6,722.2z"/>
				<path class="st3" d="M811.8,722.5v0.6l-21,25.1l-7-14L811.8,722.5z"/>
			</g>
			<path class="st5" d="M812.6,721.5l-23.9-25.1l11.7-2.3L812.6,721.5z"/>
			<path class="st5" d="M813.3,722.7l14,28.6l10.5-2.9L813.3,722.7z"/>
			<path class="st5" d="M814.5,721.8l29.2-4.7l-8.8-12.3L814.5,721.8z"/>
			<path class="st5" d="M812.8,722.1v0.6l-21,25.1l-7-14L812.8,722.1z"/>
		</g>
	</g>
	<g transform="matrix(1.0049 0 0 1.0049 -5.8231 -3.8662)">
		<rect x="877.6" y="679.3" class="st3" width="3.3" height="93.2"/>
		<rect x="878.5" y="679.3" class="st4" width="3.3" height="93.2"/>
		<path class="st3" d="M879.3,677l-6.4,0.3v15.3h6.4l5.1-8.2L879.3,677z"/>
		<polygon class="st3" points="883.1,672.1 878.6,672.1 872.9,677.2 879.3,677 		"/>
		<path class="st4" d="M879.3,676.7l3.9-4.6l4,5.6v14.9h-7.9V676.7z"/>
		<g transform="translate(1.5313 -3.573)">
			<g transform="translate(-.76565 .25522)">
				<path class="st3" d="M882.7,683.1L858.8,658l11.7-2.3L882.7,683.1z"/>
				<path class="st3" d="M883.4,684l14,28.6l10.5-2.9L883.4,684z"/>
				<path class="st3" d="M883.3,683.7l29.2-4.7l-8.8-12.3L883.3,683.7z"/>
				<path class="st3" d="M881.6,684v0.6l-21,25.1l-7-14L881.6,684z"/>
			</g>
			<path class="st5" d="M882.4,683l-23.9-25.1l11.7-2.3L882.4,683z"/>
			<path class="st5" d="M883.1,684.2l14,28.6l10.5-2.9L883.1,684.2z"/>
			<path class="st5" d="M884.3,683.4l29.2-4.7l-8.8-12.3L884.3,683.4z"/>
			<path class="st5" d="M882.6,683.7v0.6l-21,25.1l-7-14L882.6,683.7z"/>
		</g>
	</g>
	<g transform="matrix(1.0049 0 0 1.0049 -5.8231 -3.8662)">
		<rect x="413.9" y="758.5" class="st3" width="3.3" height="93.2"/>
		<rect x="414.7" y="758.5" class="st4" width="3.3" height="93.2"/>
		<path class="st3" d="M415.5,756.2l-6.4,0.3v15.3h6.4l5.1-8.2L415.5,756.2z"/>
		<polygon class="st3" points="419.4,751.3 414.9,751.3 409.1,756.5 415.5,756.2 		"/>
		<path class="st4" d="M415.5,755.9l3.9-4.6l4,5.6v14.9h-7.9V755.9z"/>
		<g transform="translate(1.5313 -3.573)">
			<g transform="translate(-.76565 .25522)">
				<path class="st3" d="M419,762.3L395,737.2l11.7-2.3L419,762.3z"/>
				<path class="st3" d="M419.7,763.2l14,28.6l10.5-2.9L419.7,763.2z"/>
				<path class="st3" d="M419.6,762.9l29.2-4.7L440,746L419.6,762.9z"/>
				<path class="st3" d="M417.8,763.2v0.6l-21,25.1l-7-14L417.8,763.2z"/>
			</g>
			<path class="st5" d="M418.6,762.2l-23.9-25.1l11.7-2.3L418.6,762.2z"/>
			<path class="st5" d="M419.3,763.5l14,28.6l10.5-2.9L419.3,763.5z"/>
			<path class="st5" d="M420.5,762.6l29.2-4.7l-8.8-12.3L420.5,762.6z"/>
			<path class="st5" d="M418.8,762.9v0.6l-21,25.1l-7-14L418.8,762.9z"/>
		</g>
	</g>
	<g transform="matrix(1.0049 0 0 1.0049 -5.8231 -3.8662)">
		<rect x="480.1" y="786.5" class="st3" width="3.3" height="93.2"/>
		<rect x="480.9" y="786.5" class="st4" width="3.3" height="93.2"/>
		<path class="st3" d="M481.7,784.2l-6.4,0.3v15.3h6.4l5.1-8.2L481.7,784.2z"/>
		<polygon class="st3" points="485.6,779.3 481.1,779.3 475.3,784.4 481.7,784.2 		"/>
		<path class="st4" d="M481.7,783.9l3.9-4.6l4,5.6v14.9h-7.9V783.9z"/>
		<g transform="translate(1.5313 -3.573)">
			<g transform="translate(-.76565 .25522)">
				<path class="st3" d="M485.2,790.3l-23.9-25.1l11.7-2.3L485.2,790.3z"/>
				<path class="st3" d="M485.9,791.2l14,28.6l10.5-2.9L485.9,791.2z"/>
				<path class="st3" d="M485.8,790.9l29.2-4.7l-8.8-12.3L485.8,790.9z"/>
				<path class="st3" d="M484,791.2v0.6l-21,25.1l-7-14L484,791.2z"/>
			</g>
			<path class="st5" d="M484.8,790.2l-23.9-25.1l11.7-2.3L484.8,790.2z"/>
			<path class="st5" d="M485.5,791.4l14,28.6l10.5-2.9L485.5,791.4z"/>
			<path class="st5" d="M486.7,790.5l29.2-4.7l-8.8-12.3L486.7,790.5z"/>
			<path class="st5" d="M485,790.8v0.6l-21,25.1l-7-14L485,790.8z"/>
		</g>
	</g>
	<path class="st6" d="M520,823.8l11.2,9.1l-10.8,12.9l-11.2-9.1L520,823.8z"/>
	<path class="st7" d="M549.6,816.6l-6.2,7.1l-4.1,0.1l6.9-6.6c0,0,0.7-3.1,3-3.2c2.4-0.1,7.6-1.3,11.4-0.3c3.8,1,2.2-1.2,5.1,2.1
		c9.1,10.6,15.8,12.6,8.9,12.7c-6.9,0.1-5.2,3.1-10.4,0.3c-5.1-2.8-2.9,1-7.1-3.1s-4-4.2-5.6-6.4S549.6,816.6,549.6,816.6
		L549.6,816.6z"/>
	<path class="st2" d="M575.6,813.6l-5.1-5.4l-3,2l-1.4,4.3v11.2l9.5-0.8l4.2-5L575.6,813.6z"/>
	<path class="st6" d="M575.7,813.6h21.5v11.2h-21.5L575.7,813.6z"/>
	<path class="st7" d="M520.7,825.2l6.5,6.9l4.1,0l-7.2-6.3c0,0-0.8-3.1-3.2-3.1c-2.4,0-7.7-0.9-11.4,0.2c-3.8,1.2-2.3-1.1-5,2.3
		c-8.7,10.9-15.3,13.2-8.4,13c6.9-0.2,5.3,2.9,10.4-0.1c5-3,2.9,0.9,7-3.4s3.9-4.4,5.4-6.6S520.7,825.1,520.7,825.2L520.7,825.2z"/>
	
		<linearGradient id="SVGID_3_" gradientUnits="userSpaceOnUse" x1="1099.1013" y1="478.3596" x2="1093.9014" y2="521.3196" gradientTransform="matrix(0.35 4.659600e-02 6.427200e-02 -0.4521 122.091 997.6274)">
		<stop  offset="0" style="stop-color:#165016"/>
		<stop  offset="1" style="stop-color:#2D8916"/>
	</linearGradient>
	<path class="st8" d="M549,827.2c-1.2,7.1-4.3,9.4-10.5,8.4c-6.2-1-11.5-5.1-12-12.2c-0.5-8,10.5-16.2,14.4-12.6
		c8.3,7.7,9.1,9.1,8.2,15.9"/>
	
		<linearGradient id="SVGID_4_" gradientUnits="userSpaceOnUse" x1="243.0038" y1="147.961" x2="237.1139" y2="-20.039" gradientTransform="matrix(1.8859 0 0 -1.6254 508.5463 948.3976)">
		<stop  offset="0" style="stop-color:#3C783F"/>
		<stop  offset="1" style="stop-color:#4BA747"/>
	</linearGradient>
	<path class="st9" d="M543.9,935.8h827.2l2.8-199.4c-2.1-3.4-38.3-19.3-148.8-27.8c-40-3.1-113.4,42.2-161.7,49.2
		c-51.3,7.4-107.1-27.1-162.5-11.1C775.7,782.8,646.6,843,543.9,935.8L543.9,935.8z"/>
	<path class="st7" d="M570.2,808.5c0-0.1,2.3,3.1,4.3,5.6c2.1,2.7,3.9,2,6.5,1.2c2.7-0.8,0.5-1.2,4.2-0.9c3.7,0.3,0.5,1,4.9,0.4
		c4.4-0.6,7.6,2.4,5.6-0.5s-2.4-3.4-4.3-5.7s1.2-3.3-3.3-2.9c-4.5,0.5-2.8,0.5-7.3,0.4c-4.5-0.2-4.6-0.5-7.7-0.2s-2-3.9-5.2,0.2
		c-3.1,4.2-3.6,3.2-4,6.5c0.3,2.6,1.5,3.7,1.7,3.8c0.4,0.1,0.5-1.6,0.8-2.7L570.2,808.5z"/>
	
		<linearGradient id="SVGID_5_" gradientUnits="userSpaceOnUse" x1="1149.1021" y1="485.2056" x2="1148.9021" y2="539.6755" gradientTransform="matrix(0.6356 7.420900e-02 0.1167 -0.7201 560.9606 1048.8651)">
		<stop  offset="0" style="stop-color:#165016"/>
		<stop  offset="1" style="stop-color:#2D8916"/>
	</linearGradient>
	<path class="st10" d="M1371.5,768.6c-2.2,11.2-13,19-24.3,17.4c-11.3-1.7-18.7-12.1-16.5-23.3s13-19,24.3-17.4
		c11,1.6,18.3,11.6,16.6,22.6"/>
	
		<linearGradient id="SVGID_6_" gradientUnits="userSpaceOnUse" x1="1166.6133" y1="492.7398" x2="1166.4133" y2="547.2098" gradientTransform="matrix(0.9529 0 0 -0.7595 44.5083 1168.2855)">
		<stop  offset="0" style="stop-color:#165016"/>
		<stop  offset="1" style="stop-color:#2D8916"/>
	</linearGradient>
	<path class="st11" d="M1186.8,774.6c-0.5,11.9-14.7,21.2-31.6,20.9s-30.3-10.3-29.8-22.2c0.5-11.9,14.7-21.2,31.6-20.9
		c16.5,0.3,29.7,9.8,29.9,21.4"/>
	
		<linearGradient id="SVGID_7_" gradientUnits="userSpaceOnUse" x1="1151.4994" y1="492.7398" x2="1151.2994" y2="547.2098" gradientTransform="matrix(0.7138 0 0 -0.7595 364.8058 1166.7855)">
		<stop  offset="0" style="stop-color:#165016"/>
		<stop  offset="1" style="stop-color:#2D8916"/>
	</linearGradient>
	<path class="st12" d="M1209.7,773.1c-0.4,11.9-11,21.2-23.7,20.9s-22.7-10.3-22.4-22.2c0.4-11.9,11-21.2,23.7-20.9
		c12.4,0.3,22.3,9.8,22.4,21.4"/>
	
		<linearGradient id="SVGID_8_" gradientUnits="userSpaceOnUse" x1="1149.7412" y1="481.7251" x2="1149.5413" y2="536.1951" gradientTransform="matrix(0.6356 6.341300e-02 0.1167 -0.6153 422.3206 1014.3332)">
		<stop  offset="0" style="stop-color:#165016"/>
		<stop  offset="1" style="stop-color:#2D8916"/>
	</linearGradient>
	<path class="st13" d="M1232.8,777.1c-2.2,9.6-13,16.2-24.3,14.8c-11.3-1.4-18.7-10.3-16.5-19.9s13-16.2,24.3-14.8
		c11,1.4,18.3,9.9,16.6,19.3"/>
	
		<linearGradient id="SVGID_9_" gradientUnits="userSpaceOnUse" x1="1149.7412" y1="481.7251" x2="1149.5413" y2="536.1951" gradientTransform="matrix(0.6356 6.341300e-02 0.1167 -0.6153 339.5607 1018.8032)">
		<stop  offset="0" style="stop-color:#165016"/>
		<stop  offset="1" style="stop-color:#2D8916"/>
	</linearGradient>
	<path class="st14" d="M1150.1,781.5c-2.2,9.6-13,16.2-24.3,14.8c-11.3-1.4-18.7-10.3-16.5-19.9c2.2-9.6,13-16.2,24.3-14.8
		c11,1.4,18.3,9.9,16.6,19.3"/>
	
		<linearGradient id="SVGID_10_" gradientUnits="userSpaceOnUse" x1="1166.6133" y1="492.7398" x2="1166.4133" y2="547.2098" gradientTransform="matrix(0.9529 0 0 -0.7595 164.6853 1164.5554)">
		<stop  offset="0" style="stop-color:#165016"/>
		<stop  offset="1" style="stop-color:#2D8916"/>
	</linearGradient>
	<path class="st15" d="M1307,770.8c-0.5,11.9-14.7,21.2-31.6,20.9s-30.3-10.3-29.8-22.2s14.7-21.2,31.6-20.9
		c16.5,0.3,29.7,9.8,29.9,21.4"/>
	
		<linearGradient id="SVGID_11_" gradientUnits="userSpaceOnUse" x1="1149.1021" y1="485.2056" x2="1148.9021" y2="539.6755" gradientTransform="matrix(0.6356 7.420900e-02 0.1167 -0.7201 451.7807 1053.2551)">
		<stop  offset="0" style="stop-color:#165016"/>
		<stop  offset="1" style="stop-color:#2D8916"/>
	</linearGradient>
	<path class="st16" d="M1262.3,773c-2.2,11.2-13,19-24.3,17.4c-11.3-1.7-18.7-12.1-16.5-23.3c2.2-11.2,13-19,24.3-17.4
		c11,1.6,18.3,11.6,16.6,22.6"/>
	
		<linearGradient id="SVGID_12_" gradientUnits="userSpaceOnUse" x1="1149.9365" y1="480.6616" x2="1149.7366" y2="535.1316" gradientTransform="matrix(0.6356 6.071400e-02 0.1167 -0.5892 511.6407 999.3828)">
		<stop  offset="0" style="stop-color:#165016"/>
		<stop  offset="1" style="stop-color:#2D8916"/>
	</linearGradient>
	<path class="st17" d="M1322.1,772.8c-2.2,9.2-13,15.5-24.3,14.2c-11.3-1.4-18.7-9.9-16.5-19.1c2.2-9.2,13-15.5,24.3-14.2
		c11,1.3,18.3,9.5,16.6,18.5"/>
	
		<linearGradient id="SVGID_13_" gradientUnits="userSpaceOnUse" x1="1151.4994" y1="492.7398" x2="1151.2994" y2="547.2098" gradientTransform="matrix(0.7138 0 0 -0.7595 504.0058 1162.6655)">
		<stop  offset="0" style="stop-color:#165016"/>
		<stop  offset="1" style="stop-color:#2D8916"/>
	</linearGradient>
	<path class="st18" d="M1348.9,769c-0.4,11.9-11,21.2-23.7,20.9c-12.7-0.3-22.7-10.3-22.4-22.2c0.4-11.9,11-21.2,23.7-20.9
		c12.4,0.3,22.3,9.8,22.4,21.4"/>
	
		<linearGradient id="SVGID_14_" gradientUnits="userSpaceOnUse" x1="1158.4114" y1="489.4073" x2="1158.2114" y2="543.8773" gradientTransform="matrix(0.747 8.789000e-02 0.1372 -0.8529 172.0259 1152.7344)">
		<stop  offset="0" style="stop-color:#165016"/>
		<stop  offset="1" style="stop-color:#2D8916"/>
	</linearGradient>
	<path class="st19" d="M1132,818.1c-2.5,13.3-15.3,22.5-28.6,20.6c-13.2-2-21.9-14.3-19.4-27.6c2.5-13.3,15.3-22.5,28.6-20.6
		c12.9,1.9,21.5,13.7,19.5,26.8"/>
	
		<linearGradient id="SVGID_15_" gradientUnits="userSpaceOnUse" x1="1158.4114" y1="489.4073" x2="1158.2114" y2="543.8773" gradientTransform="matrix(0.747 8.789000e-02 0.1372 -0.8529 177.5259 1137.2344)">
		<stop  offset="0" style="stop-color:#165016"/>
		<stop  offset="1" style="stop-color:#2D8916"/>
	</linearGradient>
	<path class="st20" d="M1137.5,802.6c-2.5,13.3-15.3,22.5-28.6,20.6c-13.2-2-21.9-14.3-19.4-27.6c2.5-13.3,15.3-22.5,28.6-20.6
		c12.9,1.9,21.5,13.7,19.5,26.8"/>
	
		<linearGradient id="SVGID_16_" gradientUnits="userSpaceOnUse" x1="1166.6133" y1="492.7398" x2="1166.4133" y2="547.2098" gradientTransform="matrix(0.9529 0 0 -0.7595 64.2893 1174.4755)">
		<stop  offset="0" style="stop-color:#165016"/>
		<stop  offset="1" style="stop-color:#2D8916"/>
	</linearGradient>
	<path class="st21" d="M1206.6,780.8c-0.5,11.9-14.7,21.2-31.6,20.9s-30.3-10.3-29.8-22.2c0.5-11.9,14.7-21.2,31.6-20.9
		c16.5,0.3,29.7,9.8,29.9,21.4"/>
	
		<linearGradient id="SVGID_17_" gradientUnits="userSpaceOnUse" x1="1151.4994" y1="492.7398" x2="1151.2994" y2="547.2098" gradientTransform="matrix(0.7138 0 0 -0.7595 384.5858 1172.9855)">
		<stop  offset="0" style="stop-color:#165016"/>
		<stop  offset="1" style="stop-color:#2D8916"/>
	</linearGradient>
	<path class="st22" d="M1229.5,779.3c-0.4,11.9-11,21.2-23.7,20.9s-22.7-10.3-22.4-22.2s11-21.2,23.7-20.9
		c12.4,0.3,22.3,9.8,22.4,21.4"/>
	
		<linearGradient id="SVGID_18_" gradientUnits="userSpaceOnUse" x1="1149.7412" y1="481.7251" x2="1149.5413" y2="536.1951" gradientTransform="matrix(0.6356 6.341300e-02 0.1167 -0.6153 442.1107 1020.5232)">
		<stop  offset="0" style="stop-color:#165016"/>
		<stop  offset="1" style="stop-color:#2D8916"/>
	</linearGradient>
	<path class="st23" d="M1252.6,783.3c-2.2,9.6-13,16.2-24.3,14.8c-11.3-1.4-18.7-10.3-16.5-19.9s13-16.2,24.3-14.8
		c11,1.4,18.3,9.9,16.6,19.3"/>
	
		<linearGradient id="SVGID_19_" gradientUnits="userSpaceOnUse" x1="1149.7412" y1="481.7251" x2="1149.5413" y2="536.1951" gradientTransform="matrix(0.6356 6.341300e-02 0.1167 -0.6153 359.3407 1025.0032)">
		<stop  offset="0" style="stop-color:#165016"/>
		<stop  offset="1" style="stop-color:#2D8916"/>
	</linearGradient>
	<path class="st24" d="M1169.8,787.7c-2.2,9.6-13,16.2-24.3,14.8c-11.3-1.4-18.7-10.3-16.5-19.9s13-16.2,24.3-14.8
		c11,1.4,18.3,9.9,16.6,19.3"/>
	
		<linearGradient id="SVGID_20_" gradientUnits="userSpaceOnUse" x1="1166.6133" y1="492.7398" x2="1166.4133" y2="547.2098" gradientTransform="matrix(0.9529 0 0 -0.7595 184.4653 1170.7555)">
		<stop  offset="0" style="stop-color:#165016"/>
		<stop  offset="1" style="stop-color:#2D8916"/>
	</linearGradient>
	<path class="st25" d="M1326.8,777c-0.5,11.9-14.7,21.2-31.6,20.9s-30.3-10.3-29.8-22.2s14.7-21.2,31.6-20.9
		c16.5,0.3,29.7,9.8,29.9,21.4"/>
	
		<linearGradient id="SVGID_21_" gradientUnits="userSpaceOnUse" x1="1149.1021" y1="485.2056" x2="1148.9021" y2="539.6755" gradientTransform="matrix(0.6356 7.420900e-02 0.1167 -0.7201 471.5606 1059.4551)">
		<stop  offset="0" style="stop-color:#165016"/>
		<stop  offset="1" style="stop-color:#2D8916"/>
	</linearGradient>
	<path class="st26" d="M1282.1,779.2c-2.2,11.2-13,19-24.3,17.4c-11.3-1.7-18.7-12.1-16.5-23.3s13-19,24.3-17.4
		c11,1.6,18.3,11.6,16.6,22.6"/>
	
		<linearGradient id="SVGID_22_" gradientUnits="userSpaceOnUse" x1="1149.9365" y1="480.6616" x2="1149.7366" y2="535.1316" gradientTransform="matrix(0.6356 6.071400e-02 0.1167 -0.5892 531.4207 1005.5828)">
		<stop  offset="0" style="stop-color:#165016"/>
		<stop  offset="1" style="stop-color:#2D8916"/>
	</linearGradient>
	<path class="st27" d="M1341.9,779c-2.2,9.2-13,15.5-24.3,14.2c-11.3-1.3-18.7-9.9-16.5-19.1c2.2-9.2,13-15.5,24.3-14.2
		c11,1.3,18.3,9.5,16.6,18.5"/>
	
		<linearGradient id="SVGID_23_" gradientUnits="userSpaceOnUse" x1="1151.4994" y1="492.7398" x2="1151.2994" y2="547.2098" gradientTransform="matrix(0.7138 0 0 -0.7595 525.3358 1167.7755)">
		<stop  offset="0" style="stop-color:#165016"/>
		<stop  offset="1" style="stop-color:#2D8916"/>
	</linearGradient>
	<path class="st28" d="M1370.3,774.1c-0.4,11.9-11,21.2-23.7,20.9s-22.7-10.3-22.4-22.2c0.4-11.9,11-21.2,23.7-20.9
		c12.4,0.3,22.3,9.8,22.4,21.4"/>
	
		<linearGradient id="SVGID_24_" gradientUnits="userSpaceOnUse" x1="417.848" y1="-0.3669" x2="417.848" y2="258.2231" gradientTransform="matrix(1.2496 0 0 -1.0049 178.6972 990.7668)">
		<stop  offset="0" style="stop-color:#5B7821"/>
		<stop  offset="1" style="stop-color:#62A721"/>
	</linearGradient>
	<path class="st29" d="M187.6,988.7H1214C863,831.9,631.1,688,187.6,988.7L187.6,988.7z"/>
	<g transform="matrix(1.0049 0 0 1.0049 -5.8231 -5.3099)">
		
			<linearGradient id="SVGID_25_" gradientUnits="userSpaceOnUse" x1="1281.1942" y1="504.2685" x2="1280.9943" y2="558.7385" gradientTransform="matrix(-0.6335 0.1068 -0.1163 -0.6809 892.4424 1014.6954)">
			<stop  offset="0" style="stop-color:#165016"/>
			<stop  offset="1" style="stop-color:#2D8916"/>
		</linearGradient>
		<path class="st30" d="M-1.1,794.3c2.1,10.6,12.9,17.3,24.1,15.1c11.2-2.2,18.5-12.5,16.4-23.1c-2.1-10.6-12.9-17.3-24.1-15.1
			c-10.9,2.2-18.2,12.1-16.5,22.4"/>
		
			<linearGradient id="SVGID_26_" gradientUnits="userSpaceOnUse" x1="1256.6836" y1="498.0407" x2="1256.4836" y2="552.5107" gradientTransform="matrix(-0.9497 5.394002e-02 0 -0.725 1405.8291 1099.5875)">
			<stop  offset="0" style="stop-color:#165016"/>
			<stop  offset="1" style="stop-color:#2D8916"/>
		</linearGradient>
		<path class="st31" d="M182,789.5c0.5,11.3,14.5,19.4,31.4,18.1c16.8-1.3,30.1-11.5,29.6-22.7s-14.5-19.4-31.4-18.1
			c-16.4,1.3-29.5,11-29.6,22"/>
		
			<linearGradient id="SVGID_27_" gradientUnits="userSpaceOnUse" x1="1271.7749" y1="498.0407" x2="1271.575" y2="552.5107" gradientTransform="matrix(-0.7114 4.040703e-02 0 -0.725 1086.7532 1116.295)">
			<stop  offset="0" style="stop-color:#165016"/>
			<stop  offset="1" style="stop-color:#2D8916"/>
		</linearGradient>
		<path class="st32" d="M159.3,789.4c0.4,11.3,10.9,19.6,23.5,18.5c12.6-1,22.5-11,22.2-22.3c-0.4-11.3-10.9-19.6-23.5-18.5
			c-12.3,1-22.1,10.6-22.2,21.6"/>
		
			<linearGradient id="SVGID_28_" gradientUnits="userSpaceOnUse" x1="1281.752" y1="501.2314" x2="1281.552" y2="555.7014" gradientTransform="matrix(-0.6335 9.652265e-02 -0.1163 -0.5809 1029.9325 973.615)">
			<stop  offset="0" style="stop-color:#165016"/>
			<stop  offset="1" style="stop-color:#2D8916"/>
		</linearGradient>
		<path class="st33" d="M136.4,794.4c2.1,9,12.9,14.7,24.1,12.7c11.2-2,18.5-10.9,16.4-19.9c-2.1-9-12.9-14.7-24.1-12.7
			c-10.9,1.9-18.2,10.5-16.5,19.3"/>
		
			<linearGradient id="SVGID_29_" gradientUnits="userSpaceOnUse" x1="1281.752" y1="501.2314" x2="1281.552" y2="555.7014" gradientTransform="matrix(-0.6335 9.652265e-02 -0.1163 -0.5809 1112.0125 973.195)">
			<stop  offset="0" style="stop-color:#165016"/>
			<stop  offset="1" style="stop-color:#2D8916"/>
		</linearGradient>
		<path class="st34" d="M218.5,794c2.1,9,12.9,14.7,24.1,12.7c11.2-2,18.5-10.9,16.4-19.9s-12.9-14.7-24.1-12.7
			c-10.9,1.9-18.2,10.5-16.5,19.3"/>
		
			<linearGradient id="SVGID_30_" gradientUnits="userSpaceOnUse" x1="1256.6836" y1="498.0407" x2="1256.4836" y2="552.5107" gradientTransform="matrix(-0.9497 5.394002e-02 0 -0.725 1286.629 1102.8175)">
			<stop  offset="0" style="stop-color:#165016"/>
			<stop  offset="1" style="stop-color:#2D8916"/>
		</linearGradient>
		<path class="st35" d="M62.8,792.7c0.5,11.3,14.5,19.4,31.4,18.1c16.8-1.3,30.1-11.5,29.6-22.7c-0.5-11.3-14.5-19.4-31.4-18.1
			c-16.4,1.3-29.5,11-29.6,22"/>
		
			<linearGradient id="SVGID_31_" gradientUnits="userSpaceOnUse" x1="1281.1942" y1="504.2685" x2="1280.9943" y2="558.7385" gradientTransform="matrix(-0.6335 0.1068 -0.1163 -0.6809 1000.7124 1012.7153)">
			<stop  offset="0" style="stop-color:#165016"/>
			<stop  offset="1" style="stop-color:#2D8916"/>
		</linearGradient>
		<path class="st36" d="M107.2,792.3c2.1,10.6,12.9,17.3,24.1,15.1c11.2-2.2,18.5-12.5,16.4-23.1c-2.1-10.6-12.9-17.3-24.1-15.1
			c-10.9,2.2-18.2,12.1-16.5,22.4"/>
		
			<linearGradient id="SVGID_32_" gradientUnits="userSpaceOnUse" x1="1281.9224" y1="500.3032" x2="1281.7224" y2="554.7732" gradientTransform="matrix(-0.6335 9.394609e-02 -0.1163 -0.5559 941.3624 964.3116)">
			<stop  offset="0" style="stop-color:#165016"/>
			<stop  offset="1" style="stop-color:#2D8916"/>
		</linearGradient>
		<path class="st37" d="M47.8,795.5c2.1,8.6,12.9,14,24.1,12.1c11.2-1.9,18.5-10.5,16.4-19.1c-2.1-8.6-12.9-14-24.1-12.1
			c-10.9,1.9-18.2,10.1-16.5,18.5"/>
		
			<linearGradient id="SVGID_33_" gradientUnits="userSpaceOnUse" x1="1271.7749" y1="498.0407" x2="1271.575" y2="552.5107" gradientTransform="matrix(-0.7114 4.040703e-02 0 -0.725 948.7631 1120.225)">
			<stop  offset="0" style="stop-color:#165016"/>
			<stop  offset="1" style="stop-color:#2D8916"/>
		</linearGradient>
		<path class="st38" d="M21.3,793.3c0.4,11.3,10.9,19.6,23.5,18.5c12.6-1,22.5-11,22.2-22.3S56,769.9,43.4,771
			c-12.3,1-22.1,10.6-22.2,21.6"/>
		
			<linearGradient id="SVGID_34_" gradientUnits="userSpaceOnUse" x1="1270.8044" y1="506.0273" x2="1270.6045" y2="560.4973" gradientTransform="matrix(-0.7444 0.1262 -0.1367 -0.8065 1278.856 1092.016)">
			<stop  offset="0" style="stop-color:#165016"/>
			<stop  offset="1" style="stop-color:#2D8916"/>
		</linearGradient>
		<path class="st39" d="M236.3,827.7c2.5,12.5,15.2,20.5,28.3,17.9c13.1-2.6,21.7-14.9,19.2-27.4c-2.5-12.5-15.2-20.5-28.3-17.9
			c-12.8,2.5-21.4,14.3-19.4,26.5"/>
		
			<linearGradient id="SVGID_35_" gradientUnits="userSpaceOnUse" x1="1270.8044" y1="506.0273" x2="1270.6045" y2="560.4973" gradientTransform="matrix(-0.7444 0.1262 -0.1367 -0.8065 1273.4561 1077.606)">
			<stop  offset="0" style="stop-color:#165016"/>
			<stop  offset="1" style="stop-color:#2D8916"/>
		</linearGradient>
		<path class="st40" d="M230.9,813.3c2.5,12.5,15.2,20.5,28.3,17.9c13.1-2.6,21.7-14.9,19.2-27.4c-2.5-12.5-15.2-20.5-28.3-17.9
			c-12.8,2.5-21.4,14.3-19.4,26.5"/>
		
			<linearGradient id="SVGID_36_" gradientUnits="userSpaceOnUse" x1="1256.6836" y1="498.0407" x2="1256.4836" y2="552.5107" gradientTransform="matrix(-0.9497 5.394002e-02 0 -0.725 1386.2291 1106.5975)">
			<stop  offset="0" style="stop-color:#165016"/>
			<stop  offset="1" style="stop-color:#2D8916"/>
		</linearGradient>
		<path class="st41" d="M162.4,796.5c0.5,11.3,14.5,19.4,31.4,18.1c16.8-1.3,30.1-11.5,29.6-22.7s-14.5-19.4-31.4-18.1
			c-16.4,1.3-29.5,11-29.6,22"/>
		
			<linearGradient id="SVGID_37_" gradientUnits="userSpaceOnUse" x1="1271.7749" y1="498.0407" x2="1271.575" y2="552.5107" gradientTransform="matrix(-0.7114 4.040703e-02 0 -0.725 1067.1832 1123.295)">
			<stop  offset="0" style="stop-color:#165016"/>
			<stop  offset="1" style="stop-color:#2D8916"/>
		</linearGradient>
		<path class="st42" d="M139.7,796.4c0.4,11.3,10.9,19.6,23.5,18.5c12.6-1,22.5-11,22.2-22.3c-0.4-11.3-10.9-19.6-23.5-18.5
			c-12.3,1-22.1,10.6-22.2,21.6"/>
		
			<linearGradient id="SVGID_38_" gradientUnits="userSpaceOnUse" x1="1281.752" y1="501.2314" x2="1281.552" y2="555.7014" gradientTransform="matrix(-0.6335 9.652265e-02 -0.1163 -0.5809 1010.3124 980.615)">
			<stop  offset="0" style="stop-color:#165016"/>
			<stop  offset="1" style="stop-color:#2D8916"/>
		</linearGradient>
		<path class="st43" d="M116.8,801.4c2.1,9,12.9,14.7,24.1,12.7c11.2-2,18.5-10.9,16.4-19.9c-2.1-9-12.9-14.7-24.1-12.7
			c-10.9,1.9-18.2,10.5-16.5,19.3"/>
		
			<linearGradient id="SVGID_39_" gradientUnits="userSpaceOnUse" x1="1281.752" y1="501.2314" x2="1281.552" y2="555.7014" gradientTransform="matrix(-0.6335 9.652265e-02 -0.1163 -0.5809 1092.3925 980.205)">
			<stop  offset="0" style="stop-color:#165016"/>
			<stop  offset="1" style="stop-color:#2D8916"/>
		</linearGradient>
		<path class="st44" d="M198.9,801c2.1,9,12.9,14.7,24.1,12.7c11.2-2,18.5-10.9,16.4-19.9c-2.1-9-12.9-14.7-24.1-12.7
			c-10.9,1.9-18.2,10.5-16.5,19.3"/>
		
			<linearGradient id="SVGID_40_" gradientUnits="userSpaceOnUse" x1="1256.6836" y1="498.0407" x2="1256.4836" y2="552.5107" gradientTransform="matrix(-0.9497 5.394002e-02 0 -0.725 1267.0291 1109.8275)">
			<stop  offset="0" style="stop-color:#165016"/>
			<stop  offset="1" style="stop-color:#2D8916"/>
		</linearGradient>
		<path class="st45" d="M43.2,799.7c0.5,11.3,14.5,19.4,31.4,18.1c16.8-1.3,30.1-11.5,29.6-22.7c-0.5-11.3-14.5-19.4-31.4-18.1
			c-16.4,1.3-29.5,11-29.6,22"/>
		
			<linearGradient id="SVGID_41_" gradientUnits="userSpaceOnUse" x1="1281.1942" y1="504.2685" x2="1280.9943" y2="558.7385" gradientTransform="matrix(-0.6335 0.1068 -0.1163 -0.6809 981.0924 1019.7153)">
			<stop  offset="0" style="stop-color:#165016"/>
			<stop  offset="1" style="stop-color:#2D8916"/>
		</linearGradient>
		<path class="st46" d="M87.6,799.3c2.1,10.6,12.9,17.3,24.1,15.1c11.2-2.2,18.5-12.5,16.4-23.1c-2.1-10.6-12.9-17.3-24.1-15.1
			c-10.9,2.2-18.2,12.1-16.5,22.4"/>
		
			<linearGradient id="SVGID_42_" gradientUnits="userSpaceOnUse" x1="1281.9224" y1="500.3032" x2="1281.7224" y2="554.7732" gradientTransform="matrix(-0.6335 9.394609e-02 -0.1163 -0.5559 921.7424 971.3217)">
			<stop  offset="0" style="stop-color:#165016"/>
			<stop  offset="1" style="stop-color:#2D8916"/>
		</linearGradient>
		<path class="st47" d="M28.2,802.5c2.1,8.6,12.9,14,24.1,12.1c11.2-1.9,18.5-10.5,16.4-19.1c-2.1-8.6-12.9-14-24.1-12.1
			c-10.9,1.9-18.2,10.1-16.5,18.5"/>
		
			<linearGradient id="SVGID_43_" gradientUnits="userSpaceOnUse" x1="1271.7749" y1="498.0407" x2="1271.575" y2="552.5107" gradientTransform="matrix(-0.7114 4.040703e-02 0 -0.725 927.6031 1126.275)">
			<stop  offset="0" style="stop-color:#165016"/>
			<stop  offset="1" style="stop-color:#2D8916"/>
		</linearGradient>
		<path class="st48" d="M0.1,799.3c0.4,11.3,10.9,19.6,23.5,18.5c12.6-1,22.5-11,22.2-22.3C45.4,784.3,34.9,776,22.3,777
			C10,778,0.2,787.6,0.1,798.6"/>
		
			<linearGradient id="SVGID_44_" gradientUnits="userSpaceOnUse" x1="1249.9691" y1="502.8406" x2="1249.7692" y2="557.3105" gradientTransform="matrix(-1.1159 6.338507e-02 0 -1.0049 1618.2083 1263.2134)">
			<stop  offset="0" style="stop-color:#165016"/>
			<stop  offset="1" style="stop-color:#2D8916"/>
		</linearGradient>
		<path class="st49" d="M187.6,813.5c0.6,15.6,17.1,27,36.9,25.4c19.8-1.6,35.3-15.5,34.8-31.2c-0.6-15.6-17.1-27-36.9-25.4
			c-19.3,1.5-34.7,14.9-34.8,30.1"/>
		<path class="st50" d="M2.2,844.8l-0.4-32.6c69,7.2,41.2,9.1,89.4,6.7c29.5-1.5,87.4,13.3,126.7,17.2c24.8,2.4,45.2-4.8,42.1-4.2
			c-34.8,6.1,21.9,5.4-0.1,8.4c-10.1,1.4-32.3,4.2-56.2,0.7c-23.9-3.5-23.2-3.5-59.3-3.1c-49.1,0.6-57,10.4-90.5,5.1
			C20.3,837.5,2.2,844.8,2.2,844.8L2.2,844.8z"/>
		
			<linearGradient id="SVGID_45_" gradientUnits="userSpaceOnUse" x1="1262.8112" y1="502.8405" x2="1262.6112" y2="557.3105" gradientTransform="matrix(-0.836 4.748253e-02 0 -1.0049 1243.3058 1282.546)">
			<stop  offset="0" style="stop-color:#165016"/>
			<stop  offset="1" style="stop-color:#2D8916"/>
		</linearGradient>
		<path class="st51" d="M160.9,813.1c0.4,15.6,12.8,27.2,27.6,25.9c14.8-1.3,26.5-15,26-30.7c-0.4-15.6-12.8-27.2-27.6-25.9
			c-14.4,1.3-26,14.4-26.1,29.7"/>
		
			<linearGradient id="SVGID_46_" gradientUnits="userSpaceOnUse" x1="1270.8044" y1="506.0273" x2="1270.6045" y2="560.4973" gradientTransform="matrix(-0.7444 0.1262 -0.1367 -0.8065 1177.2161 1081.276)">
			<stop  offset="0" style="stop-color:#165016"/>
			<stop  offset="1" style="stop-color:#2D8916"/>
		</linearGradient>
		<path class="st52" d="M134.7,817c2.5,12.5,15.2,20.5,28.3,17.9c13.1-2.6,21.7-14.9,19.2-27.4c-2.5-12.5-15.2-20.5-28.3-17.9
			c-12.8,2.5-21.4,14.3-19.4,26.5"/>
		
			<linearGradient id="SVGID_47_" gradientUnits="userSpaceOnUse" x1="1270.8044" y1="506.0273" x2="1270.6045" y2="560.4973" gradientTransform="matrix(-0.7444 0.1262 -0.1367 -0.8065 1261.9561 1086.5959)">
			<stop  offset="0" style="stop-color:#165016"/>
			<stop  offset="1" style="stop-color:#2D8916"/>
		</linearGradient>
		<path class="st53" d="M219.4,822.3c2.5,12.5,15.2,20.5,28.3,17.9c13.1-2.6,21.7-14.9,19.2-27.4c-2.5-12.5-15.2-20.5-28.3-17.9
			c-12.8,2.5-21.4,14.3-19.4,26.5"/>
		
			<linearGradient id="SVGID_48_" gradientUnits="userSpaceOnUse" x1="1249.9691" y1="502.8406" x2="1249.7692" y2="557.3105" gradientTransform="matrix(-1.1159 6.338507e-02 0 -1.0049 1478.1083 1266.2634)">
			<stop  offset="0" style="stop-color:#165016"/>
			<stop  offset="1" style="stop-color:#2D8916"/>
		</linearGradient>
		<path class="st54" d="M47.5,816.5c0.6,15.6,17.1,27,36.9,25.4c19.8-1.6,35.3-15.5,34.8-31.2c-0.6-15.6-17.1-27-36.9-25.4
			c-19.3,1.5-34.7,14.9-34.8,30.1"/>
		
			<linearGradient id="SVGID_49_" gradientUnits="userSpaceOnUse" x1="1270.4021" y1="508.2182" x2="1270.2021" y2="562.6882" gradientTransform="matrix(-0.7444 0.1405 -0.1367 -0.9451 1142.1161 1137.9421)">
			<stop  offset="0" style="stop-color:#165016"/>
			<stop  offset="1" style="stop-color:#2D8916"/>
		</linearGradient>
		<path class="st55" d="M99.6,816.5c2.5,14.7,15.2,24.2,28.3,21.2c13.1-2.9,21.7-17.2,19.2-31.8c-2.5-14.7-15.2-24.2-28.3-21.2
			c-12.8,2.9-21.4,16.5-19.4,30.9"/>
		
			<linearGradient id="SVGID_50_" gradientUnits="userSpaceOnUse" x1="1270.9275" y1="505.3574" x2="1270.7275" y2="559.8273" gradientTransform="matrix(-0.7444 0.1226 -0.1367 -0.7718 1072.3661 1070.1652)">
			<stop  offset="0" style="stop-color:#165016"/>
			<stop  offset="1" style="stop-color:#2D8916"/>
		</linearGradient>
		<path class="st56" d="M29.9,820.2c2.5,12,15.2,19.6,28.3,17.1c13.1-2.5,21.7-14.3,19.2-26.2s-15.2-19.6-28.3-17.1
			c-12.8,2.5-21.4,13.7-19.4,25.5"/>
		
			<linearGradient id="SVGID_51_" gradientUnits="userSpaceOnUse" x1="1262.8115" y1="502.8405" x2="1262.6116" y2="557.3105" gradientTransform="matrix(-0.836 4.748253e-02 0 -1.0049 1076.3857 1290.7361)">
			<stop  offset="0" style="stop-color:#165016"/>
			<stop  offset="1" style="stop-color:#2D8916"/>
		</linearGradient>
		<path class="st57" d="M-6,821.2c0.4,15.6,12.8,27.3,27.6,26c14.8-1.3,26.5-15,26.1-30.7c-0.4-15.6-12.8-27.3-27.6-26
			C5.6,791.9-6,805-6,820.2"/>
	</g>
	<g transform="matrix(.69811 .24258 0 1.0049 216.85 -15.41)">
		
			<linearGradient id="SVGID_52_" gradientUnits="userSpaceOnUse" x1="1572.4037" y1="118.0464" x2="1572.2037" y2="172.5164" gradientTransform="matrix(-0.4682 -9.014401e-02 -0.1163 -0.6809 772.0454 1030.3422)">
			<stop  offset="0" style="stop-color:#165016"/>
			<stop  offset="1" style="stop-color:#2D8916"/>
		</linearGradient>
		<path class="st58" d="M-1.1,794.3c2.1,10.6,12.9,17.3,24.1,15.1c11.2-2.2,18.5-12.5,16.4-23.1c-2.1-10.6-12.9-17.3-24.1-15.1
			c-10.9,2.2-18.2,12.1-16.5,22.4"/>
		
			<linearGradient id="SVGID_53_" gradientUnits="userSpaceOnUse" x1="1518.481" y1="122.5003" x2="1518.281" y2="176.9702" gradientTransform="matrix(-0.6597 -0.1376 0 -0.725 1214.2031 1103.9584)">
			<stop  offset="0" style="stop-color:#165016"/>
			<stop  offset="1" style="stop-color:#2D8916"/>
		</linearGradient>
		<path class="st59" d="M182,789.5c0.5,11.3,14.5,19.4,31.4,18.1c16.8-1.3,30.1-11.5,29.6-22.7s-14.5-19.4-31.4-18.1
			c-16.4,1.3-29.5,11-29.6,22"/>
		
			<linearGradient id="SVGID_54_" gradientUnits="userSpaceOnUse" x1="1549.751" y1="114.9518" x2="1549.551" y2="169.4218" gradientTransform="matrix(-0.4942 -0.147 0 -0.725 947.923 1117.6671)">
			<stop  offset="0" style="stop-color:#165016"/>
			<stop  offset="1" style="stop-color:#2D8916"/>
		</linearGradient>
		<path class="st60" d="M159.3,789.4c0.4,11.3,10.9,19.6,23.5,18.5c12.6-1,22.5-11,22.2-22.3c-0.4-11.3-10.9-19.6-23.5-18.5
			c-12.3,1-22.1,10.6-22.2,21.6"/>
		
			<linearGradient id="SVGID_55_" gradientUnits="userSpaceOnUse" x1="1574.0933" y1="111.2475" x2="1573.8933" y2="165.7175" gradientTransform="matrix(-0.4682 -7.316365e-02 -0.1163 -0.5809 909.5354 985.9725)">
			<stop  offset="0" style="stop-color:#165016"/>
			<stop  offset="1" style="stop-color:#2D8916"/>
		</linearGradient>
		<path class="st61" d="M136.4,794.4c2.1,9,12.9,14.7,24.1,12.7c11.2-2,18.5-10.9,16.4-19.9c-2.1-9-12.9-14.7-24.1-12.7
			c-10.9,1.9-18.2,10.5-16.5,19.3"/>
		
			<linearGradient id="SVGID_56_" gradientUnits="userSpaceOnUse" x1="1574.0933" y1="111.2475" x2="1573.8933" y2="165.7175" gradientTransform="matrix(-0.4682 -7.316365e-02 -0.1163 -0.5809 991.6154 985.5525)">
			<stop  offset="0" style="stop-color:#165016"/>
			<stop  offset="1" style="stop-color:#2D8916"/>
		</linearGradient>
		<path class="st62" d="M218.5,794c2.1,9,12.9,14.7,24.1,12.7c11.2-2,18.5-10.9,16.4-19.9s-12.9-14.7-24.1-12.7
			c-10.9,1.9-18.2,10.5-16.5,19.3"/>
		
			<linearGradient id="SVGID_57_" gradientUnits="userSpaceOnUse" x1="1518.481" y1="122.5003" x2="1518.281" y2="176.9702" gradientTransform="matrix(-0.6597 -0.1376 0 -0.725 1095.0031 1107.1885)">
			<stop  offset="0" style="stop-color:#165016"/>
			<stop  offset="1" style="stop-color:#2D8916"/>
		</linearGradient>
		<path class="st63" d="M62.8,792.7c0.5,11.3,14.5,19.4,31.4,18.1c16.8-1.3,30.1-11.5,29.6-22.7c-0.5-11.3-14.5-19.4-31.4-18.1
			c-16.4,1.3-29.5,11-29.6,22"/>
		
			<linearGradient id="SVGID_58_" gradientUnits="userSpaceOnUse" x1="1572.4037" y1="118.0464" x2="1572.2037" y2="172.5164" gradientTransform="matrix(-0.4682 -9.014401e-02 -0.1163 -0.6809 880.3154 1028.3622)">
			<stop  offset="0" style="stop-color:#165016"/>
			<stop  offset="1" style="stop-color:#2D8916"/>
		</linearGradient>
		<path class="st64" d="M107.2,792.3c2.1,10.6,12.9,17.3,24.1,15.1c11.2-2.2,18.5-12.5,16.4-23.1c-2.1-10.6-12.9-17.3-24.1-15.1
			c-10.9,2.2-18.2,12.1-16.5,22.4"/>
		
			<linearGradient id="SVGID_59_" gradientUnits="userSpaceOnUse" x1="1574.6096" y1="109.1694" x2="1574.4097" y2="163.6394" gradientTransform="matrix(-0.4682 -6.891579e-02 -0.1163 -0.5559 820.9654 975.8468)">
			<stop  offset="0" style="stop-color:#165016"/>
			<stop  offset="1" style="stop-color:#2D8916"/>
		</linearGradient>
		<path class="st65" d="M47.8,795.5c2.1,8.6,12.9,14,24.1,12.1c11.2-1.9,18.5-10.5,16.4-19.1c-2.1-8.6-12.9-14-24.1-12.1
			c-10.9,1.9-18.2,10.1-16.5,18.5"/>
		
			<linearGradient id="SVGID_60_" gradientUnits="userSpaceOnUse" x1="1549.751" y1="114.9518" x2="1549.551" y2="169.4218" gradientTransform="matrix(-0.4942 -0.147 0 -0.725 809.9329 1121.5972)">
			<stop  offset="0" style="stop-color:#165016"/>
			<stop  offset="1" style="stop-color:#2D8916"/>
		</linearGradient>
		<path class="st66" d="M21.3,793.3c0.4,11.3,10.9,19.6,23.5,18.5c12.6-1,22.5-11,22.2-22.3S56,769.9,43.4,771
			c-12.3,1-22.1,10.6-22.2,21.6"/>
		
			<linearGradient id="SVGID_61_" gradientUnits="userSpaceOnUse" x1="1550.3875" y1="127.7392" x2="1550.1875" y2="182.2091" gradientTransform="matrix(-0.5502 -0.107 -0.1367 -0.8065 1134.0806 1113.2159)">
			<stop  offset="0" style="stop-color:#165016"/>
			<stop  offset="1" style="stop-color:#2D8916"/>
		</linearGradient>
		<path class="st67" d="M236.3,827.7c2.5,12.5,15.2,20.5,28.3,17.9c13.1-2.6,21.7-14.9,19.2-27.4c-2.5-12.5-15.2-20.5-28.3-17.9
			c-12.8,2.5-21.4,14.3-19.4,26.5"/>
		
			<linearGradient id="SVGID_62_" gradientUnits="userSpaceOnUse" x1="1550.3875" y1="127.7392" x2="1550.1875" y2="182.2091" gradientTransform="matrix(-0.5502 -0.107 -0.1367 -0.8065 1128.6807 1098.8059)">
			<stop  offset="0" style="stop-color:#165016"/>
			<stop  offset="1" style="stop-color:#2D8916"/>
		</linearGradient>
		<path class="st68" d="M230.9,813.3c2.5,12.5,15.2,20.5,28.3,17.9c13.1-2.6,21.7-14.9,19.2-27.4c-2.5-12.5-15.2-20.5-28.3-17.9
			c-12.8,2.5-21.4,14.3-19.4,26.5"/>
		
			<linearGradient id="SVGID_63_" gradientUnits="userSpaceOnUse" x1="1518.481" y1="122.5003" x2="1518.281" y2="176.9702" gradientTransform="matrix(-0.6597 -0.1376 0 -0.725 1194.6031 1110.9684)">
			<stop  offset="0" style="stop-color:#165016"/>
			<stop  offset="1" style="stop-color:#2D8916"/>
		</linearGradient>
		<path class="st69" d="M162.4,796.5c0.5,11.3,14.5,19.4,31.4,18.1c16.8-1.3,30.1-11.5,29.6-22.7s-14.5-19.4-31.4-18.1
			c-16.4,1.3-29.5,11-29.6,22"/>
		
			<linearGradient id="SVGID_64_" gradientUnits="userSpaceOnUse" x1="1549.751" y1="114.9518" x2="1549.551" y2="169.4218" gradientTransform="matrix(-0.4942 -0.147 0 -0.725 928.353 1124.6671)">
			<stop  offset="0" style="stop-color:#165016"/>
			<stop  offset="1" style="stop-color:#2D8916"/>
		</linearGradient>
		<path class="st70" d="M139.7,796.4c0.4,11.3,10.9,19.6,23.5,18.5c12.6-1,22.5-11,22.2-22.3c-0.4-11.3-10.9-19.6-23.5-18.5
			c-12.3,1-22.1,10.6-22.2,21.6"/>
		
			<linearGradient id="SVGID_65_" gradientUnits="userSpaceOnUse" x1="1574.0933" y1="111.2475" x2="1573.8933" y2="165.7175" gradientTransform="matrix(-0.4682 -7.316365e-02 -0.1163 -0.5809 889.9154 992.9725)">
			<stop  offset="0" style="stop-color:#165016"/>
			<stop  offset="1" style="stop-color:#2D8916"/>
		</linearGradient>
		<path class="st71" d="M116.8,801.4c2.1,9,12.9,14.7,24.1,12.7c11.2-2,18.5-10.9,16.4-19.9c-2.1-9-12.9-14.7-24.1-12.7
			c-10.9,1.9-18.2,10.5-16.5,19.3"/>
		
			<linearGradient id="SVGID_66_" gradientUnits="userSpaceOnUse" x1="1574.0933" y1="111.2475" x2="1573.8933" y2="165.7175" gradientTransform="matrix(-0.4682 -7.316365e-02 -0.1163 -0.5809 971.9954 992.5625)">
			<stop  offset="0" style="stop-color:#165016"/>
			<stop  offset="1" style="stop-color:#2D8916"/>
		</linearGradient>
		<path class="st72" d="M198.9,801c2.1,9,12.9,14.7,24.1,12.7c11.2-2,18.5-10.9,16.4-19.9c-2.1-9-12.9-14.7-24.1-12.7
			c-10.9,1.9-18.2,10.5-16.5,19.3"/>
		
			<linearGradient id="SVGID_67_" gradientUnits="userSpaceOnUse" x1="1518.481" y1="122.5003" x2="1518.281" y2="176.9702" gradientTransform="matrix(-0.6597 -0.1376 0 -0.725 1075.4031 1114.1984)">
			<stop  offset="0" style="stop-color:#165016"/>
			<stop  offset="1" style="stop-color:#2D8916"/>
		</linearGradient>
		<path class="st73" d="M43.2,799.7c0.5,11.3,14.5,19.4,31.4,18.1c16.8-1.3,30.1-11.5,29.6-22.7c-0.5-11.3-14.5-19.4-31.4-18.1
			c-16.4,1.3-29.5,11-29.6,22"/>
		
			<linearGradient id="SVGID_68_" gradientUnits="userSpaceOnUse" x1="1572.4037" y1="118.0464" x2="1572.2037" y2="172.5164" gradientTransform="matrix(-0.4682 -9.014401e-02 -0.1163 -0.6809 860.6954 1035.3622)">
			<stop  offset="0" style="stop-color:#165016"/>
			<stop  offset="1" style="stop-color:#2D8916"/>
		</linearGradient>
		<path class="st74" d="M87.6,799.3c2.1,10.6,12.9,17.3,24.1,15.1c11.2-2.2,18.5-12.5,16.4-23.1c-2.1-10.6-12.9-17.3-24.1-15.1
			c-10.9,2.2-18.2,12.1-16.5,22.4"/>
		
			<linearGradient id="SVGID_69_" gradientUnits="userSpaceOnUse" x1="1574.6096" y1="109.1694" x2="1574.4097" y2="163.6394" gradientTransform="matrix(-0.4682 -6.891579e-02 -0.1163 -0.5559 801.3454 982.8568)">
			<stop  offset="0" style="stop-color:#165016"/>
			<stop  offset="1" style="stop-color:#2D8916"/>
		</linearGradient>
		<path class="st75" d="M28.2,802.5c2.1,8.6,12.9,14,24.1,12.1c11.2-1.9,18.5-10.5,16.4-19.1c-2.1-8.6-12.9-14-24.1-12.1
			c-10.9,1.9-18.2,10.1-16.5,18.5"/>
		
			<linearGradient id="SVGID_70_" gradientUnits="userSpaceOnUse" x1="1549.751" y1="114.9518" x2="1549.551" y2="169.4218" gradientTransform="matrix(-0.4942 -0.147 0 -0.725 788.7729 1127.6472)">
			<stop  offset="0" style="stop-color:#165016"/>
			<stop  offset="1" style="stop-color:#2D8916"/>
		</linearGradient>
		<path class="st76" d="M0.1,799.3c0.4,11.3,10.9,19.6,23.5,18.5c12.6-1,22.5-11,22.2-22.3C45.4,784.3,34.9,776,22.3,777
			C10,778,0.2,787.6,0.1,798.6"/>
		
			<linearGradient id="SVGID_71_" gradientUnits="userSpaceOnUse" x1="1504.5685" y1="135.9594" x2="1504.3685" y2="190.4294" gradientTransform="matrix(-0.7753 -0.1985 0 -1.0049 1389.7344 1272.49)">
			<stop  offset="0" style="stop-color:#165016"/>
			<stop  offset="1" style="stop-color:#2D8916"/>
		</linearGradient>
		<path class="st77" d="M187.6,813.5c0.6,15.6,17.1,27,36.9,25.4c19.8-1.6,35.3-15.5,34.8-31.2c-0.6-15.6-17.1-27-36.9-25.4
			c-19.3,1.5-34.7,14.9-34.8,30.1"/>
		<path class="st50" d="M2.2,844.8l-0.4-32.6c69,7.2,41.2,9.1,89.4,6.7c29.5-1.5,87.4,13.3,126.7,17.2c24.8,2.4,45.2-4.8,42.1-4.2
			c-34.8,6.1,21.9,5.4-0.1,8.4c-10.1,1.4-32.3,4.2-56.2,0.7c-23.9-3.5-23.2-3.5-59.3-3.1c-49.1,0.6-57,10.4-90.5,5.1
			C20.3,837.5,2.2,844.8,2.2,844.8L2.2,844.8z"/>
		
			<linearGradient id="SVGID_72_" gradientUnits="userSpaceOnUse" x1="1531.1777" y1="129.536" x2="1530.9778" y2="184.006" gradientTransform="matrix(-0.5808 -0.2096 0 -1.0049 1076.8708 1288.2988)">
			<stop  offset="0" style="stop-color:#165016"/>
			<stop  offset="1" style="stop-color:#2D8916"/>
		</linearGradient>
		<path class="st78" d="M160.9,813.1c0.4,15.6,12.8,27.2,27.6,25.9c14.8-1.3,26.5-15,26-30.7c-0.4-15.6-12.8-27.2-27.6-25.9
			c-14.4,1.3-26,14.4-26.1,29.7"/>
		
			<linearGradient id="SVGID_73_" gradientUnits="userSpaceOnUse" x1="1550.3875" y1="127.7392" x2="1550.1875" y2="182.2091" gradientTransform="matrix(-0.5502 -0.107 -0.1367 -0.8065 1032.4407 1102.476)">
			<stop  offset="0" style="stop-color:#165016"/>
			<stop  offset="1" style="stop-color:#2D8916"/>
		</linearGradient>
		<path class="st79" d="M134.7,817c2.5,12.5,15.2,20.5,28.3,17.9c13.1-2.6,21.7-14.9,19.2-27.4c-2.5-12.5-15.2-20.5-28.3-17.9
			c-12.8,2.5-21.4,14.3-19.4,26.5"/>
		
			<linearGradient id="SVGID_74_" gradientUnits="userSpaceOnUse" x1="1550.3875" y1="127.7392" x2="1550.1875" y2="182.2091" gradientTransform="matrix(-0.5502 -0.107 -0.1367 -0.8065 1117.1807 1107.796)">
			<stop  offset="0" style="stop-color:#165016"/>
			<stop  offset="1" style="stop-color:#2D8916"/>
		</linearGradient>
		<path class="st80" d="M219.4,822.3c2.5,12.5,15.2,20.5,28.3,17.9c13.1-2.6,21.7-14.9,19.2-27.4c-2.5-12.5-15.2-20.5-28.3-17.9
			c-12.8,2.5-21.4,14.3-19.4,26.5"/>
		
			<linearGradient id="SVGID_75_" gradientUnits="userSpaceOnUse" x1="1504.5685" y1="135.9594" x2="1504.3685" y2="190.4294" gradientTransform="matrix(-0.7753 -0.1985 0 -1.0049 1249.6344 1275.54)">
			<stop  offset="0" style="stop-color:#165016"/>
			<stop  offset="1" style="stop-color:#2D8916"/>
		</linearGradient>
		<path class="st81" d="M47.5,816.5c0.6,15.6,17.1,27,36.9,25.4c19.8-1.6,35.3-15.5,34.8-31.2c-0.6-15.6-17.1-27-36.9-25.4
			c-19.3,1.5-34.7,14.9-34.8,30.1"/>
		
			<linearGradient id="SVGID_76_" gradientUnits="userSpaceOnUse" x1="1549.1687" y1="132.6441" x2="1548.9688" y2="187.1141" gradientTransform="matrix(-0.5502 -0.1305 -0.1367 -0.9451 997.3406 1163.6996)">
			<stop  offset="0" style="stop-color:#165016"/>
			<stop  offset="1" style="stop-color:#2D8916"/>
		</linearGradient>
		<path class="st82" d="M99.6,816.5c2.5,14.7,15.2,24.2,28.3,21.2c13.1-2.9,21.7-17.2,19.2-31.8c-2.5-14.7-15.2-24.2-28.3-21.2
			c-12.8,2.9-21.4,16.5-19.4,30.9"/>
		
			<linearGradient id="SVGID_77_" gradientUnits="userSpaceOnUse" x1="1550.7601" y1="126.2397" x2="1550.5602" y2="180.7096" gradientTransform="matrix(-0.5502 -0.1011 -0.1367 -0.7718 927.5906 1090.2242)">
			<stop  offset="0" style="stop-color:#165016"/>
			<stop  offset="1" style="stop-color:#2D8916"/>
		</linearGradient>
		<path class="st83" d="M29.9,820.2c2.5,12,15.2,19.6,28.3,17.1c13.1-2.5,21.7-14.3,19.2-26.2s-15.2-19.6-28.3-17.1
			c-12.8,2.5-21.4,13.7-19.4,25.5"/>
		
			<linearGradient id="SVGID_78_" gradientUnits="userSpaceOnUse" x1="1531.1781" y1="129.5359" x2="1530.9781" y2="184.0059" gradientTransform="matrix(-0.5808 -0.2096 0 -1.0049 898.3408 1294.2389)">
			<stop  offset="0" style="stop-color:#165016"/>
			<stop  offset="1" style="stop-color:#2D8916"/>
		</linearGradient>
		<path class="st84" d="M-17.6,819c0.4,15.6,12.8,27.3,27.6,26c14.8-1.3,26.5-15,26.1-30.7c-0.4-15.6-12.8-27.3-27.6-26
			c-14.4,1.3-26,14.4-26.1,29.6"/>
	</g>
	
		<linearGradient id="SVGID_79_" gradientUnits="userSpaceOnUse" x1="409.4985" y1="-0.3669" x2="409.4985" y2="258.2231" gradientTransform="matrix(1.0049 0 0 -1.0049 -6.0338 1055.7336)">
		<stop  offset="0" style="stop-color:#4B7829"/>
		<stop  offset="1" style="stop-color:#569221"/>
	</linearGradient>
	<path class="st85" d="M-7.3,844.9v208.8h825.5C328.1,720.2,173.2,798.9-7.3,844.9L-7.3,844.9z"/>
	<path class="st86" d="M229.8,802.5c122.7,48.4,320.2,164.4,400.7,251.2h131.2c-104.6-86.3-317.1-191.5-444.4-242.2
		C285.9,805.6,256.9,802.9,229.8,802.5L229.8,802.5z"/>
	
		<linearGradient id="SVGID_80_" gradientUnits="userSpaceOnUse" x1="236.8829" y1="-0.3669" x2="236.8829" y2="258.2231" gradientTransform="matrix(1.6462 0 0 -1.0049 617.4834 978.9738)">
		<stop  offset="0" style="stop-color:#5B7821"/>
		<stop  offset="1" style="stop-color:#62A721"/>
	</linearGradient>
	<path class="st87" d="M642.9,976.9h729l-4.5-171.3C1362.7,800.2,915.6,802.3,642.9,976.9L642.9,976.9z"/>
	<path class="st88" d="M752.7,943c-32.4-14-123.9-41.7-145.7-56.8c-9.6-6.6-7.6-18.2,9.1-19.7c90.8-8.1,6.3-27.7-63.4-42.9l6.7-1.2
		c294.3,69.1-157.3,19.1,192.3,99.2l0.9,5.9l-112-28.8l110.7,32.5L752.7,943z"/>
	
		<linearGradient id="SVGID_81_" gradientUnits="userSpaceOnUse" x1="964.9257" y1="6.4058" x2="923.4957" y2="217.8757" gradientTransform="matrix(1.0084 0 0 -1.0049 -8.1026 1055.7336)">
		<stop  offset="0" style="stop-color:#6D9A2C"/>
		<stop  offset="1" style="stop-color:#6FB12C"/>
	</linearGradient>
	<path class="st89" d="M1369.5,954.8l1.4,98.8H542.6C738,875.1,931.1,851,1101.9,842.4c168.9-8.5,46.5,48,88.6,64
		C1245.5,927.1,1232.5,872.4,1369.5,954.8L1369.5,954.8z"/>
	<path class="st90" d="M48.3,830.1c-18.5,5-36.9,10.1-55.6,14.8v6c48.1,65.1,78.8,134.5,111.5,202.8h111.4
		C165.4,979,117.8,903.1,48.3,830.1L48.3,830.1z"/>
	
		<linearGradient id="SVGID_82_" gradientUnits="userSpaceOnUse" x1="515.0162" y1="210.5658" x2="-22.8138" y2="681.9358" gradientTransform="matrix(1.0049 0 0 -1.0049 -6.0338 1341.4899)">
		<stop  offset="0" style="stop-color:#7C6F1F;stop-opacity:0.6623"/>
		<stop  offset="1" style="stop-color:#8A9137;stop-opacity:0.5"/>
	</linearGradient>
	<path class="st91" d="M168.1,805.4c-19.2,2.1-37.6,5.2-55.5,8.9c90.6,70.9,164.5,155.3,232.4,239.3h158.7
		C400.6,961.7,277.7,868.7,168.1,805.4L168.1,805.4z"/>
	
		<linearGradient id="SVGID_83_" gradientUnits="userSpaceOnUse" x1="1173.339" y1="498.2405" x2="1173.139" y2="552.7105" gradientTransform="matrix(1.1198 0 0 -1.0526 -168.6414 1351.6583)">
		<stop  offset="0" style="stop-color:#165016"/>
		<stop  offset="1" style="stop-color:#2D8916"/>
	</linearGradient>
	<path class="st92" d="M1181.3,800.2c-0.6,16.5-17.2,29.5-37.2,29c-20-0.5-35.7-14.2-35.1-30.7s17.2-29.5,37.2-29
		c19.4,0.5,35,13.6,35.1,29.6"/>
	<path class="st50" d="M1373,822.1l0.4-34.3c-70.8,11.7-42.3,12.1-91.8,12.4c-30.3,0.2-89.8,19.3-130.1,25.7
		c-25.5,4.1-46.5-2.3-43.2-1.9c35.8,4.3-22.5,7,0.1,8.9c10.4,0.8,33.1,2.5,57.7-2.6s23.8-5.1,61-6.9c50.4-2.4,58.6,7.6,93-0.1
		S1373,822.1,1373,822.1L1373,822.1z"/>
	
		<linearGradient id="SVGID_84_" gradientUnits="userSpaceOnUse" x1="1160.4762" y1="498.2405" x2="1160.2762" y2="552.7105" gradientTransform="matrix(0.8388 0 0 -1.0526 207.7507 1349.5984)">
		<stop  offset="0" style="stop-color:#165016"/>
		<stop  offset="1" style="stop-color:#2D8916"/>
	</linearGradient>
	<path class="st93" d="M1208.2,798.1c-0.4,16.5-12.9,29.5-27.8,29c-14.9-0.5-26.7-14.2-26.3-30.7s12.9-29.5,27.8-29
		c14.6,0.5,26.2,13.6,26.3,29.6"/>
	
		<linearGradient id="SVGID_85_" gradientUnits="userSpaceOnUse" x1="1158.4114" y1="489.4073" x2="1158.2114" y2="543.8773" gradientTransform="matrix(0.747 8.789000e-02 0.1372 -0.8529 274.5559 1135.3444)">
		<stop  offset="0" style="stop-color:#165016"/>
		<stop  offset="1" style="stop-color:#2D8916"/>
	</linearGradient>
	<path class="st94" d="M1234.5,800.7c-2.5,13.3-15.3,22.5-28.6,20.6c-13.2-2-21.9-14.3-19.4-27.6c2.5-13.3,15.3-22.5,28.6-20.6
		c12.9,1.9,21.6,13.7,19.5,26.8"/>
	
		<linearGradient id="SVGID_86_" gradientUnits="userSpaceOnUse" x1="1158.4114" y1="489.4073" x2="1158.2114" y2="543.8773" gradientTransform="matrix(0.747 8.789000e-02 0.1372 -0.8529 189.0659 1146.0144)">
		<stop  offset="0" style="stop-color:#165016"/>
		<stop  offset="1" style="stop-color:#2D8916"/>
	</linearGradient>
	<path class="st95" d="M1149,811.4c-2.5,13.3-15.3,22.5-28.6,20.6c-13.2-2-21.9-14.3-19.4-27.6c2.5-13.3,15.3-22.5,28.6-20.6
		c12.9,1.9,21.6,13.7,19.5,26.8"/>
	
		<linearGradient id="SVGID_87_" gradientUnits="userSpaceOnUse" x1="1173.339" y1="498.2405" x2="1173.139" y2="552.7105" gradientTransform="matrix(1.1198 0 0 -1.0526 -27.4244 1346.4983)">
		<stop  offset="0" style="stop-color:#165016"/>
		<stop  offset="1" style="stop-color:#2D8916"/>
	</linearGradient>
	<path class="st96" d="M1322.5,795c-0.6,16.5-17.2,29.5-37.2,29c-20-0.5-35.7-14.2-35.1-30.7c0.6-16.5,17.2-29.5,37.2-29
		c19.4,0.5,35,13.6,35.1,29.6"/>
	
		<linearGradient id="SVGID_88_" gradientUnits="userSpaceOnUse" x1="1157.9501" y1="491.9187" x2="1157.7501" y2="546.3887" gradientTransform="matrix(0.747 0.1028 0.1372 -0.998 309.9459 1192.2222)">
		<stop  offset="0" style="stop-color:#165016"/>
		<stop  offset="1" style="stop-color:#2D8916"/>
	</linearGradient>
	<path class="st97" d="M1269.9,798c-2.5,15.6-15.3,26.3-28.6,24.1c-13.2-2.3-21.9-16.8-19.4-32.3s15.3-26.3,28.6-24.1
		c12.9,2.2,21.6,16.1,19.5,31.3"/>
	
		<linearGradient id="SVGID_89_" gradientUnits="userSpaceOnUse" x1="1158.5522" y1="488.6399" x2="1158.3523" y2="543.1099" gradientTransform="matrix(0.747 8.414900e-02 0.1372 -0.8166 380.2759 1117.5475)">
		<stop  offset="0" style="stop-color:#165016"/>
		<stop  offset="1" style="stop-color:#2D8916"/>
	</linearGradient>
	<path class="st98" d="M1340.2,797.8c-2.5,12.7-15.3,21.6-28.6,19.7c-13.2-1.9-21.9-13.7-19.4-26.5c2.5-12.7,15.3-21.6,28.6-19.7
		c12.9,1.8,21.6,13.2,19.5,25.6"/>
	
		<linearGradient id="SVGID_90_" gradientUnits="userSpaceOnUse" x1="1160.4762" y1="498.2405" x2="1160.2762" y2="552.7105" gradientTransform="matrix(0.8388 0 0 -1.0526 373.1407 1342.3584)">
		<stop  offset="0" style="stop-color:#165016"/>
		<stop  offset="1" style="stop-color:#2D8916"/>
	</linearGradient>
	<path class="st99" d="M1373.5,790.9c-0.4,16.5-12.9,29.5-27.8,29c-14.9-0.5-26.7-14.2-26.3-30.7c0.4-16.5,12.9-29.5,27.8-29
		c14.6,0.5,26.2,13.6,26.3,29.6"/>
	<path class="st100" d="M770.7,908.2c132.7,25.2,250.8,69.3,367.5,147.9l39.3,4.4c-82.1-54.4-235.1-128.9-403.1-154.5L770.7,908.2z"
		/>
	<path class="st100" d="M781,903.2c133,18.4,288.7,74.6,410.8,153.7l28.2,0.1c-108.3-72.9-270.8-137.7-435.3-156L781,903.2z"/>
	
		<linearGradient id="SVGID_91_" gradientUnits="userSpaceOnUse" x1="1096.6077" y1="467.5039" x2="1096.4077" y2="521.9739" gradientTransform="matrix(0.35 4.659600e-02 6.427200e-02 -0.4521 183.631 982.8375)">
		<stop  offset="0" style="stop-color:#165016"/>
		<stop  offset="1" style="stop-color:#2D8916"/>
	</linearGradient>
	<path class="st101" d="M610.5,812.5c-1.2,7.1-7.2,11.9-13.4,10.9c-6.2-1-12-8.2-9.1-14.7c6.4-14.2,9.7-15.1,14.4-12.6
		c9.3,4.9,9.1,9,8.2,15.9"/>
	<g transform="matrix(.15814 0 0 .12803 46.487 915.59)">
		<path class="st102" d="M804.4,980.9c0,0-19.4-34.7-35.7-70.4c-16.3-35.7-6.1-32.7-27.6-54.1s-49-18.4-65.3,10.2
			c-16.3,28.6-17.4,60.2-36.8,89.8s-33.7,45.9-33.7,45.9s-21.4,11.2-1,0s37.8-1,37.8-1l85.8,10.2c0,0,67.4,9.2,31.6-4.1
			S804.4,980.9,804.4,980.9L804.4,980.9z"/>
		<path class="st103" d="M631.9,984c0,0,20.4-4.1,31.6-30.6c11.2-26.5,0-67.4,22.5-84.7s26.5-19.4,26.5-19.4s-26.5,45.9-19.4,79.6
			c7.1,33.7,25.5,40.8,9.2,55.1s-29.6,11.2-43.9,5.1C644.2,982.9,631.9,984,631.9,984L631.9,984z"/>
	</g>
	<g transform="matrix(.14199 0 0 .12671 19.978 880.69)">
		<path class="st102" d="M804.4,980.9c0,0-19.4-34.7-35.7-70.4c-16.3-35.7-6.1-32.7-27.6-54.1s-49-18.4-65.3,10.2
			c-16.3,28.6-17.4,60.2-36.8,89.8s-33.7,45.9-33.7,45.9s-21.4,11.2-1,0s37.8-1,37.8-1l85.8,10.2c0,0,67.4,9.2,31.6-4.1
			C723.8,994.2,804.4,980.9,804.4,980.9L804.4,980.9z"/>
		<path class="st103" d="M631.9,984c0,0,20.4-4.1,31.6-30.6c11.2-26.5,0-67.4,22.5-84.7s26.5-19.4,26.5-19.4s-26.5,45.9-19.4,79.6
			c7.1,33.7,25.5,40.8,9.2,55.1s-29.6,11.2-43.9,5.1C644.2,982.9,631.9,984,631.9,984L631.9,984z"/>
	</g>
	<g transform="matrix(.11596 0 0 .10907 33.207 856.42)">
		<path class="st102" d="M804.4,980.9c0,0-19.4-34.7-35.7-70.4c-16.3-35.7-6.1-32.7-27.6-54.1s-49-18.4-65.3,10.2
			c-16.3,28.6-17.4,60.2-36.8,89.8s-33.7,45.9-33.7,45.9s-21.4,11.2-1,0s37.8-1,37.8-1l85.8,10.2c0,0,67.4,9.2,31.6-4.1
			S804.4,980.9,804.4,980.9L804.4,980.9z"/>
		<path class="st103" d="M631.9,984c0,0,20.4-4.1,31.6-30.6c11.2-26.5,0-67.4,22.5-84.7s26.5-19.4,26.5-19.4s-26.5,45.9-19.4,79.6
			c7.1,33.7,25.5,40.8,9.2,55.1s-29.6,11.2-43.9,5.1C644.2,982.9,631.9,984,631.9,984L631.9,984z"/>
	</g>
	<g transform="matrix(.096318 0 0 .097157 10.025 842.86)">
		<path class="st102" d="M804.4,980.9c0,0-19.4-34.7-35.7-70.4c-16.3-35.7-6.1-32.7-27.6-54.1s-49-18.4-65.3,10.2
			c-16.3,28.6-17.4,60.2-36.8,89.8s-33.7,45.9-33.7,45.9s-21.4,11.2-1,0s37.8-1,37.8-1l85.8,10.2c0,0,67.4,9.2,31.6-4.1
			S804.4,980.9,804.4,980.9L804.4,980.9z"/>
		<path class="st103" d="M631.9,984c0,0,20.4-4.1,31.6-30.6c11.2-26.5,0-67.4,22.5-84.7s26.5-19.4,26.5-19.4s-26.5,45.9-19.4,79.6
			c7.1,33.7,25.5,40.8,9.2,55.1s-29.6,11.2-43.9,5.1C644.2,982.9,631.9,984,631.9,984L631.9,984z"/>
	</g>
	<g transform="matrix(.081586 0 0 .085137 13.669 827.34)">
		<path class="st102" d="M804.4,980.9c0,0-19.4-34.7-35.7-70.4c-16.3-35.7-6.1-32.7-27.6-54.1s-49-18.4-65.3,10.2
			c-16.3,28.6-17.4,60.2-36.8,89.8s-33.7,45.9-33.7,45.9s-21.4,11.2-1,0s37.8-1,37.8-1l85.8,10.2c0,0,67.4,9.2,31.6-4.1
			S804.4,980.9,804.4,980.9L804.4,980.9z"/>
		<path class="st103" d="M631.9,984c0,0,20.4-4.1,31.6-30.6c11.2-26.5,0-67.4,22.5-84.7s26.5-19.4,26.5-19.4s-26.5,45.9-19.4,79.6
			c7.1,33.7,25.5,40.8,9.2,55.1s-29.6,11.2-43.9,5.1C644.2,982.9,631.9,984,631.9,984L631.9,984z"/>
	</g>
	<g transform="matrix(.061944 0 0 .054923 -8.4865 812.78)">
		<path class="st102" d="M804.4,980.9c0,0-19.4-34.7-35.7-70.4c-16.3-35.7-6.1-32.7-27.6-54.1s-49-18.4-65.3,10.2
			c-16.3,28.6-17.4,60.2-36.8,89.8s-33.7,45.9-33.7,45.9s-21.4,11.2-1,0s37.8-1,37.8-1l85.8,10.2c0,0,67.4,9.2,31.6-4.1
			S804.4,980.9,804.4,980.9L804.4,980.9z"/>
		<path class="st103" d="M631.9,984c0,0,20.4-4.1,31.6-30.6c11.2-26.5,0-67.4,22.5-84.7s26.5-19.4,26.5-19.4s-26.5,45.9-19.4,79.6
			c7.1,33.7,25.5,40.8,9.2,55.1s-29.6,11.2-43.9,5.1C644.2,982.9,631.9,984,631.9,984L631.9,984z"/>
	</g>
	
		<linearGradient id="SVGID_92_" gradientUnits="userSpaceOnUse" x1="995.3632" y1="857.5262" x2="995.3532" y2="733.9962" gradientTransform="matrix(1 0 0 -1 0 1338.72)">
		<stop  offset="0" style="stop-color:#FFFFFF"/>
		<stop  offset="1" style="stop-color:#FFFFFF;stop-opacity:0"/>
	</linearGradient>
	<path class="st104" d="M930.5,484.8c-21.1,0-38.3,10.3-38.3,23c0,8,6.9,15.1,17.3,19.2c-0.5,0.5-1.1,1-1.5,1.5
		c-3.9-0.5-8.2-0.8-12.8-0.8c-1.5,0-3.1,0-4.6,0.1c-3-1.4-6.2-2.5-9.7-3.4c0.6-0.7,1-1.5,1-2.4c0-3.7-6.4-6.6-14.3-6.6
		c-4.8,0-9.1,1.1-11.7,2.8c-3.2-5.8-11.4-9.9-21-9.9c-12.1,0-21.9,6.5-22.4,14.6c-5.9,1.1-10.2,4.9-10.2,9.4c0,2.6,1.4,4.9,3.8,6.6
		H806c-10.4,0-18.9,6-18.9,13.3c0,2.2,0.8,4.3,2.2,6.2c-6.4,0.3-11.4,3.2-11.4,6.6c0,3.7,5.7,6.7,12.8,6.7c1.4,0,2.8-0.1,4-0.4
		c-1,1.4-1.5,2.9-1.5,4.4c0,7.9,13.5,14.3,30.1,14.3c1.3,0,2.5-0.1,3.7-0.2c7.2,1.4,16.4,2.2,26.4,2.2c11.2,0,21.4-1,28.9-2.7
		c5.1,1.1,10.9,1.7,17,1.7h0.3c7.2,3.9,16.1,6.1,25.7,6.1c11.1,0,21.2-3,29-8.1c9.9,6,29.1,10.1,51.2,10.1c13.5,0,25.9-1.5,35.7-4.1
		c7.9,4.4,19.6,7.2,32.6,7.2c6.1,0,11.8-0.6,17-1.7c2.4,1.7,5.8,2.7,9.6,2.7c4.6,0,8.6-1.5,11-3.8c2.9,1.1,6.5,1.8,10.4,1.8
		c1.4,0,2.8-0.1,4.1-0.2c2.1,2,5.7,3.3,9.7,3.3c6.1,0,11.1-3,11.7-6.9c2.6,1.7,7.4,2.8,12.8,2.8c2.1,0,4.1-0.2,5.9-0.5
		c3.7,2.2,8.6,3.5,14,3.5c3.7,0,7.2-0.6,10.3-1.7c0.6,1.5,5.3,2.8,11.2,2.8c6.2,0,11.2-1.4,11.2-3.1s-5-3.1-11.2-3.1
		c3.6-1.4,6.1-4.1,6.1-7.2c0-2.2-1.2-4.1-3.2-5.6c0.7-1.1,1.2-2.3,1.2-3.6c0-4.5-4.8-8.2-10.8-8.2c-0.1,0-0.3,0-0.5,0
		c0-4.5-7.1-8.2-15.8-8.2c-6.6,0-12.2,2.1-14.6,5c-1.3-0.5-2.9-0.8-4.6-0.9c0.8-1.2,1.3-2.6,1.3-4.1c0-4.5-4.3-8.1-9.7-8.1
		c-5.3,0-9.7,3.6-9.7,8.1c0,2.5,1.3,4.7,3.4,6.2c-0.3,0-0.6,0-0.8,0c-10.5,0-18.9,4.8-18.9,10.7c0,0.6,0.1,1.1,0.2,1.7
		c-1-0.1-2.1-0.1-3.3-0.1c-1.9,0-3.7,0.1-5.4,0.4c0.2-0.8,0.3-1.7,0.3-2.5c0-5.6-4.7-10.7-12.4-14.4c3.8-2,6.3-5.1,6.3-8.6
		c0-5.9-7.1-10.7-15.8-10.7c-1.1,0-2.2,0.1-3.2,0.2c-3.3-4.4-9.6-7.4-16.7-7.4c-6.9,0-13,2.8-16.4,6.9c-0.5-6.5-7.3-12.1-17.1-15
		c0.5-1,0.8-2,0.8-3.1c0-6.2-9.4-11.2-20.9-11.2c-1.5,0-3,0.1-4.5,0.2c-6.8-4.5-15.3-7.7-24.8-8.9c0.8-1.1,1.2-2.3,1.2-3.6
		c0-6.2-10.1-11.2-22.5-11.2c-2.7,0-5.3,0.3-7.8,0.7C956.4,489.1,944.3,484.8,930.5,484.8z M820.5,560.6c0.1,0.3,0.1,0.5,0.2,0.8
		c-0.4,0-0.9,0-1.3,0.1C819.8,561.2,820.2,560.9,820.5,560.6z M1165.4,578.1c0.1,0.1,0.2,0.2,0.3,0.2c-1.2,0.7-2.3,1.5-3.2,2.4
		c-0.1-0.5-0.2-0.9-0.5-1.3C1163.3,579.1,1164.5,578.6,1165.4,578.1L1165.4,578.1z"/>
</g>
</svg>
